<?xml version="1.0" encoding="iso-8859-1"?>
<!-- Generator: Adobe Illustrator 18.0.0, SVG Export Plug-In . SVG Version: 6.00 Build 0)  -->
<!DOCTYPE svg PUBLIC "-//W3C//DTD SVG 1.1//EN" "http://www.w3.org/Graphics/SVG/1.1/DTD/svg11.dtd">
<svg version="1.1" id="Capa_1" xmlns="http://www.w3.org/2000/svg" xmlns:xlink="http://www.w3.org/1999/xlink" x="0px" y="0px"
	 viewBox="0 0 495.08 495.08" style="enable-background:new 0 0 495.08 495.08;" xml:space="preserve">
<g id="XMLID_187_">
	<path id="XMLID_189_" d="M252.221,236.406c-0.612-0.515-0.963-1.217-1.535-1.773v182.761c0,3.62-2.943,6.562-6.569,6.562H78.694
		c-3.627,0-6.569-2.941-6.569-6.562V131.379c0-3.619,2.942-6.562,6.569-6.562H185.87V91.349H68.399
		c-17.372,0-31.46,14.087-31.46,31.468v340.795c0,17.38,14.088,31.468,31.46,31.468h186.014c17.372,0,31.46-14.087,31.46-31.468
		V243.629c-3.236,0.915-6.571,1.455-9.944,1.455C267.16,245.084,258.668,241.938,252.221,236.406z M161.405,477.291
		c-10.982,0-19.872-8.9-19.872-19.873c0-10.975,8.89-19.873,19.872-19.873c10.967,0,19.874,8.898,19.874,19.873
		C181.279,468.391,172.371,477.291,161.405,477.291z"/>
	<path id="XMLID_188_" d="M429.009,0H248.472c-16.091,0-29.132,13.042-29.132,29.131v100.443c0,16.089,13.042,29.131,29.132,29.131
		h42.417l-18.026,48.514c-0.475,1.283-0.1,2.73,0.948,3.611c0.605,0.515,1.356,0.785,2.117,0.785c0.547,0,1.102-0.14,1.602-0.425
		l92.777-52.485h58.702c16.091,0,29.132-13.041,29.132-29.131V29.131C458.141,13.042,445.099,0,429.009,0z"/>
</g>
<g>
</g>
<g>
</g>
<g>
</g>
<g>
</g>
<g>
</g>
<g>
</g>
<g>
</g>
<g>
</g>
<g>
</g>
<g>
</g>
<g>
</g>
<g>
</g>
<g>
</g>
<g>
</g>
<g>
</g>
</svg>
